<svg width="32" height="32" viewBox="0 0 32 32" xmlns="http://www.w3.org/2000/svg">
  <defs>
    <linearGradient id="leafGradient" x1="0%" y1="0%" x2="100%" y2="100%">
      <stop offset="0%" style="stop-color:#4CAF50;stop-opacity:1" />
      <stop offset="100%" style="stop-color:#2E7D32;stop-opacity:1" />
    </linearGradient>
  </defs>
  
  <!-- Background circle -->
  <circle cx="16" cy="16" r="16" fill="url(#leafGradient)"/>
  
  <!-- Tree/leaf design -->
  <path d="M12 8 C8 8, 6 12, 8 16 C6 20, 8 24, 12 24 C16 24, 18 20, 16 16 C18 12, 16 8, 12 8 Z" fill="#ffffff" opacity="0.9"/>
  <path d="M20 8 C16 8, 14 12, 16 16 C14 20, 16 24, 20 24 C24 24, 26 20, 24 16 C26 12, 24 8, 20 8 Z" fill="#ffffff" opacity="0.7"/>
  
  <!-- Stem -->
  <rect x="15" y="16" width="2" height="8" fill="#ffffff" opacity="0.8"/>
</svg>
